<svg xmlns="http://www.w3.org/2000/svg" xmlns:xlink="http://www.w3.org/1999/xlink" width="1024" zoomAndPan="magnify" viewBox="0 0 768 576" height="768" preserveAspectRatio="xMidYMid meet" version="1.0"><defs><g/></defs><g fill="#ffdf2b" fill-opacity="1"><g transform="translate(21.090728, 328.2904)"><g><path d="M 99.1875 -70.6875 C 99.1875 -63.914062 97.5625 -58.035156 94.3125 -53.046875 C 91.070312 -48.066406 86.507812 -44.234375 80.625 -41.546875 C 74.75 -38.867188 68.003906 -37.53125 60.390625 -37.53125 L 41.0625 -37.53125 C 39.925781 -37.53125 39.359375 -37.015625 39.359375 -35.984375 L 39.359375 -4.09375 C 39.359375 -2.582031 38.984375 -1.519531 38.234375 -0.90625 C 37.484375 -0.300781 36.304688 0 34.703125 0 L 11 0 C 9.59375 0 8.628906 -0.28125 8.109375 -0.84375 C 7.597656 -1.40625 7.34375 -2.300781 7.34375 -3.53125 L 7.34375 -101.453125 C 7.34375 -103.609375 8.234375 -104.6875 10.015625 -104.6875 L 56.71875 -104.6875 C 64.625 -104.6875 71.796875 -103.394531 78.234375 -100.8125 C 84.679688 -98.226562 89.785156 -94.394531 93.546875 -89.3125 C 97.304688 -84.226562 99.1875 -78.019531 99.1875 -70.6875 Z M 66.453125 -71.109375 C 66.453125 -74.398438 65.320312 -77.054688 63.0625 -79.078125 C 60.8125 -81.097656 58.039062 -82.109375 54.75 -82.109375 L 42.609375 -82.109375 C 41.390625 -82.109375 40.539062 -81.875 40.0625 -81.40625 C 39.59375 -80.9375 39.359375 -80.1875 39.359375 -79.15625 L 39.359375 -63.203125 C 39.359375 -62.078125 39.546875 -61.28125 39.921875 -60.8125 C 40.304688 -60.34375 40.921875 -60.109375 41.765625 -60.109375 L 55.59375 -60.109375 C 58.882812 -60.109375 61.515625 -61.164062 63.484375 -63.28125 C 65.460938 -65.394531 66.453125 -68.003906 66.453125 -71.109375 Z M 66.453125 -71.109375 "/></g></g></g><g fill="#ffdf2b" fill-opacity="1"><g transform="translate(124.226939, 328.2904)"><g><path d="M 7.34375 -101.453125 C 7.34375 -103.609375 8.234375 -104.6875 10.015625 -104.6875 L 86.203125 -104.6875 C 87.898438 -104.6875 88.75 -103.703125 88.75 -101.734375 L 88.609375 -85.359375 C 88.609375 -82.816406 87.382812 -81.546875 84.9375 -81.546875 L 42.609375 -81.546875 C 40.441406 -81.546875 39.359375 -80.65625 39.359375 -78.875 L 39.359375 -66.875 C 39.359375 -65.9375 39.59375 -65.207031 40.0625 -64.6875 C 40.539062 -64.175781 41.15625 -63.921875 41.90625 -63.921875 L 67.296875 -63.921875 C 69.273438 -63.921875 70.265625 -62.976562 70.265625 -61.09375 L 70.265625 -43.59375 C 70.265625 -42 69.414062 -41.203125 67.71875 -41.203125 L 41.625 -41.203125 C 40.96875 -41.203125 40.425781 -41.015625 40 -40.640625 C 39.570312 -40.265625 39.359375 -39.789062 39.359375 -39.21875 L 39.359375 -25.109375 C 39.359375 -24.359375 39.476562 -23.84375 39.71875 -23.5625 C 39.957031 -23.28125 40.40625 -23.140625 41.0625 -23.140625 L 86.90625 -23.140625 C 88.976562 -23.140625 90.015625 -22.242188 90.015625 -20.453125 L 90.015625 -3.109375 C 90.015625 -2.160156 89.734375 -1.40625 89.171875 -0.84375 C 88.609375 -0.28125 87.757812 0 86.625 0 L 11.140625 0 C 9.734375 0 8.75 -0.28125 8.1875 -0.84375 C 7.625 -1.40625 7.34375 -2.300781 7.34375 -3.53125 Z M 7.34375 -101.453125 "/></g></g></g><g fill="#ffdf2b" fill-opacity="1"><g transform="translate(218.897795, 328.2904)"><g><path d="M 98.90625 -4.515625 C 99.09375 -4.140625 99.1875 -3.625 99.1875 -2.96875 C 99.1875 -2.113281 98.925781 -1.40625 98.40625 -0.84375 C 97.894531 -0.28125 97.210938 0 96.359375 0 L 69 0 C 67.019531 0 65.75 -0.988281 65.1875 -2.96875 L 51.921875 -39.359375 C 51.640625 -40.117188 51.171875 -40.6875 50.515625 -41.0625 C 49.859375 -41.4375 48.867188 -41.625 47.546875 -41.625 L 41.0625 -41.625 C 40.5 -41.625 40.070312 -41.4375 39.78125 -41.0625 C 39.5 -40.6875 39.359375 -40.359375 39.359375 -40.078125 L 39.359375 -4.09375 C 39.359375 -2.582031 38.984375 -1.519531 38.234375 -0.90625 C 37.484375 -0.300781 36.304688 0 34.703125 0 L 11 0 C 9.59375 0 8.628906 -0.28125 8.109375 -0.84375 C 7.597656 -1.40625 7.34375 -2.300781 7.34375 -3.53125 L 7.34375 -101.453125 C 7.34375 -103.609375 8.234375 -104.6875 10.015625 -104.6875 L 57.140625 -104.6875 C 70.773438 -104.6875 81.351562 -102.078125 88.875 -96.859375 C 96.40625 -91.640625 100.171875 -84.28125 100.171875 -74.78125 C 100.171875 -68.289062 98.453125 -62.503906 95.015625 -57.421875 C 91.585938 -52.347656 87.144531 -48.773438 81.6875 -46.703125 C 81.125 -46.421875 80.84375 -45.953125 80.84375 -45.296875 C 80.84375 -45.015625 80.9375 -44.585938 81.125 -44.015625 Z M 55.875 -62.640625 C 59.445312 -62.640625 62.195312 -63.554688 64.125 -65.390625 C 66.050781 -67.222656 67.015625 -69.691406 67.015625 -72.796875 C 67.015625 -76.285156 65.863281 -78.992188 63.5625 -80.921875 C 61.257812 -82.847656 58.414062 -83.8125 55.03125 -83.8125 L 42.609375 -83.8125 C 41.390625 -83.8125 40.539062 -83.597656 40.0625 -83.171875 C 39.59375 -82.753906 39.359375 -82.023438 39.359375 -80.984375 L 39.359375 -65.609375 C 39.359375 -64.578125 39.523438 -63.820312 39.859375 -63.34375 C 40.191406 -62.875 40.828125 -62.640625 41.765625 -62.640625 Z M 55.875 -62.640625 "/></g></g></g><g fill="#ffdf2b" fill-opacity="1"><g transform="translate(323.162731, 328.2904)"><g><path d="M 69.703125 -76.609375 C 67.441406 -79.054688 65.015625 -80.9375 62.421875 -82.25 C 59.835938 -83.570312 56.101562 -84.234375 51.21875 -84.234375 C 46.320312 -84.234375 42.695312 -83.523438 40.34375 -82.109375 C 38 -80.703125 36.828125 -79.007812 36.828125 -77.03125 C 36.828125 -73.644531 39.835938 -71.25 45.859375 -69.84375 L 69.28125 -63.78125 C 77.832031 -61.613281 84.269531 -57.820312 88.59375 -52.40625 C 92.925781 -47 95.09375 -40.535156 95.09375 -33.015625 C 95.09375 -26.054688 93.257812 -19.988281 89.59375 -14.8125 C 85.925781 -9.632812 80.679688 -5.632812 73.859375 -2.8125 C 67.046875 0 59.078125 1.40625 49.953125 1.40625 C 39.597656 1.40625 30.164062 -0.304688 21.65625 -3.734375 C 13.144531 -7.171875 7.242188 -11.664062 3.953125 -17.21875 C 3.484375 -18.15625 3.25 -18.859375 3.25 -19.328125 C 3.25 -20.265625 3.765625 -21.113281 4.796875 -21.875 L 19.328125 -31.890625 C 20.359375 -32.546875 21.300781 -32.875 22.15625 -32.875 C 23.1875 -32.875 24.03125 -32.453125 24.6875 -31.609375 C 27.882812 -27.460938 31.128906 -24.539062 34.421875 -22.84375 C 37.710938 -21.15625 42.085938 -20.3125 47.546875 -20.3125 C 52.816406 -20.3125 56.976562 -21.039062 60.03125 -22.5 C 63.09375 -23.957031 64.625 -25.957031 64.625 -28.5 C 64.625 -30.289062 63.867188 -31.84375 62.359375 -33.15625 C 60.859375 -34.46875 58.648438 -35.457031 55.734375 -36.125 L 34.28125 -41.34375 C 25.820312 -43.40625 19.097656 -47.28125 14.109375 -52.96875 C 9.117188 -58.664062 6.625 -65.226562 6.625 -72.65625 C 6.625 -78.769531 8.410156 -84.390625 11.984375 -89.515625 C 15.566406 -94.648438 20.648438 -98.695312 27.234375 -101.65625 C 33.816406 -104.625 41.4375 -106.109375 50.09375 -106.109375 C 58.550781 -106.109375 66.398438 -104.71875 73.640625 -101.9375 C 80.890625 -99.164062 86.113281 -95.472656 89.3125 -90.859375 C 89.96875 -90.015625 90.296875 -89.21875 90.296875 -88.46875 C 90.296875 -87.8125 89.96875 -87.195312 89.3125 -86.625 L 73.9375 -75.484375 C 73.46875 -75.109375 72.945312 -74.921875 72.375 -74.921875 C 71.71875 -74.921875 70.828125 -75.484375 69.703125 -76.609375 Z M 69.703125 -76.609375 "/></g></g></g><g fill="#ffdf2b" fill-opacity="1"><g transform="translate(422.066289, 328.2904)"><g><path d="M 55.171875 1.40625 C 44.910156 1.40625 35.945312 -0.773438 28.28125 -5.140625 C 20.625 -9.515625 14.722656 -15.722656 10.578125 -23.765625 C 6.441406 -31.816406 4.375 -41.25 4.375 -52.0625 C 4.375 -62.882812 6.46875 -72.363281 10.65625 -80.5 C 14.84375 -88.632812 20.765625 -94.9375 28.421875 -99.40625 C 36.085938 -103.875 45.003906 -106.109375 55.171875 -106.109375 C 65.234375 -106.109375 74.070312 -103.875 81.6875 -99.40625 C 89.3125 -94.9375 95.210938 -88.632812 99.390625 -80.5 C 103.578125 -72.363281 105.671875 -62.882812 105.671875 -52.0625 C 105.671875 -41.34375 103.601562 -31.9375 99.46875 -23.84375 C 95.332031 -15.75 89.453125 -9.515625 81.828125 -5.140625 C 74.210938 -0.773438 65.328125 1.40625 55.171875 1.40625 Z M 55.171875 -20.59375 C 59.304688 -20.59375 62.597656 -21.601562 65.046875 -23.625 C 67.492188 -25.65625 69.28125 -28.925781 70.40625 -33.4375 C 71.53125 -37.957031 72.09375 -44.023438 72.09375 -51.640625 C 72.09375 -63.304688 70.773438 -71.675781 68.140625 -76.75 C 65.515625 -81.832031 61.191406 -84.375 55.171875 -84.375 C 49.054688 -84.375 44.65625 -81.832031 41.96875 -76.75 C 39.289062 -71.675781 37.953125 -63.304688 37.953125 -51.640625 C 37.953125 -44.023438 38.515625 -37.957031 39.640625 -33.4375 C 40.773438 -28.925781 42.585938 -25.65625 45.078125 -23.625 C 47.566406 -21.601562 50.929688 -20.59375 55.171875 -20.59375 Z M 55.171875 -20.59375 "/></g></g></g><g fill="#ffdf2b" fill-opacity="1"><g transform="translate(532.11585, 328.2904)"><g><path d="M 97.921875 -104.6875 C 99.328125 -104.6875 100.03125 -103.890625 100.03125 -102.296875 L 100.03125 -2.546875 C 100.03125 -1.785156 99.722656 -1.171875 99.109375 -0.703125 C 98.503906 -0.234375 97.734375 0 96.796875 0 L 77.453125 0 C 76.609375 0 75.925781 -0.140625 75.40625 -0.421875 C 74.894531 -0.703125 74.3125 -1.265625 73.65625 -2.109375 L 34.84375 -54.75 C 34.46875 -55.21875 34.140625 -55.40625 33.859375 -55.3125 C 33.578125 -55.21875 33.4375 -54.9375 33.4375 -54.46875 L 33.4375 -3.109375 C 33.53125 -1.972656 33.316406 -1.171875 32.796875 -0.703125 C 32.285156 -0.234375 31.367188 0 30.046875 0 L 10.859375 0 C 8.515625 0 7.34375 -0.941406 7.34375 -2.828125 L 7.34375 -101.453125 C 7.34375 -103.609375 8.375 -104.6875 10.4375 -104.6875 L 33.4375 -104.6875 C 34.65625 -104.6875 35.570312 -104.519531 36.1875 -104.1875 C 36.800781 -103.863281 37.484375 -103.1875 38.234375 -102.15625 L 72.09375 -55.03125 C 72.664062 -54.175781 73.1875 -53.75 73.65625 -53.75 C 74.125 -53.75 74.359375 -54.363281 74.359375 -55.59375 L 74.359375 -101.734375 C 74.359375 -103.703125 75.390625 -104.6875 77.453125 -104.6875 Z M 97.921875 -104.6875 "/></g></g></g><g fill="#ffdf2b" fill-opacity="1"><g transform="translate(639.484779, 328.2904)"><g><path d="M 69.703125 -76.609375 C 67.441406 -79.054688 65.015625 -80.9375 62.421875 -82.25 C 59.835938 -83.570312 56.101562 -84.234375 51.21875 -84.234375 C 46.320312 -84.234375 42.695312 -83.523438 40.34375 -82.109375 C 38 -80.703125 36.828125 -79.007812 36.828125 -77.03125 C 36.828125 -73.644531 39.835938 -71.25 45.859375 -69.84375 L 69.28125 -63.78125 C 77.832031 -61.613281 84.269531 -57.820312 88.59375 -52.40625 C 92.925781 -47 95.09375 -40.535156 95.09375 -33.015625 C 95.09375 -26.054688 93.257812 -19.988281 89.59375 -14.8125 C 85.925781 -9.632812 80.679688 -5.632812 73.859375 -2.8125 C 67.046875 0 59.078125 1.40625 49.953125 1.40625 C 39.597656 1.40625 30.164062 -0.304688 21.65625 -3.734375 C 13.144531 -7.171875 7.242188 -11.664062 3.953125 -17.21875 C 3.484375 -18.15625 3.25 -18.859375 3.25 -19.328125 C 3.25 -20.265625 3.765625 -21.113281 4.796875 -21.875 L 19.328125 -31.890625 C 20.359375 -32.546875 21.300781 -32.875 22.15625 -32.875 C 23.1875 -32.875 24.03125 -32.453125 24.6875 -31.609375 C 27.882812 -27.460938 31.128906 -24.539062 34.421875 -22.84375 C 37.710938 -21.15625 42.085938 -20.3125 47.546875 -20.3125 C 52.816406 -20.3125 56.976562 -21.039062 60.03125 -22.5 C 63.09375 -23.957031 64.625 -25.957031 64.625 -28.5 C 64.625 -30.289062 63.867188 -31.84375 62.359375 -33.15625 C 60.859375 -34.46875 58.648438 -35.457031 55.734375 -36.125 L 34.28125 -41.34375 C 25.820312 -43.40625 19.097656 -47.28125 14.109375 -52.96875 C 9.117188 -58.664062 6.625 -65.226562 6.625 -72.65625 C 6.625 -78.769531 8.410156 -84.390625 11.984375 -89.515625 C 15.566406 -94.648438 20.648438 -98.695312 27.234375 -101.65625 C 33.816406 -104.625 41.4375 -106.109375 50.09375 -106.109375 C 58.550781 -106.109375 66.398438 -104.71875 73.640625 -101.9375 C 80.890625 -99.164062 86.113281 -95.472656 89.3125 -90.859375 C 89.96875 -90.015625 90.296875 -89.21875 90.296875 -88.46875 C 90.296875 -87.8125 89.96875 -87.195312 89.3125 -86.625 L 73.9375 -75.484375 C 73.46875 -75.109375 72.945312 -74.921875 72.375 -74.921875 C 71.71875 -74.921875 70.828125 -75.484375 69.703125 -76.609375 Z M 69.703125 -76.609375 "/></g></g></g><path stroke-linecap="butt" transform="matrix(0.660378, 0, 0, 0.660378, 221.204916, 286.778622)" fill="none" stroke-linejoin="miter" d="M 18.576859 113.001609 C 17.867038 113.001609 17.28735 112.765002 16.837797 112.291788 C 16.405989 111.794913 16.193042 111.108753 16.193042 110.227391 C 16.193042 109.606298 16.335007 108.896476 16.61302 108.097927 L 48.554977 18.080761 C 48.986785 16.939132 49.465914 16.152414 50.004195 15.726521 C 50.542476 15.276967 51.382431 15.046276 52.518145 15.046276 L 78.527179 15.046276 C 79.580081 15.046276 80.526509 15.383441 81.366464 16.045941 C 82.206419 16.690695 82.839343 17.54248 83.265236 18.595382 L 114.95284 108.517905 C 115.12438 109.227726 115.207193 109.754177 115.207193 110.097257 C 115.207193 110.895806 115.035653 111.581967 114.692572 112.161654 C 114.349492 112.723596 113.823041 113.001609 113.11322 113.001609 L 87.23432 113.001609 C 85.72595 113.001609 84.761776 112.250382 84.329968 110.742012 L 79.171934 95.563667 C 78.917581 94.960319 78.669144 94.552172 78.432536 94.339225 C 78.21959 94.102618 77.811443 93.984315 77.208095 93.984315 L 49.199731 93.984315 C 48.146829 93.984315 47.490245 94.469359 47.229977 95.433533 L 41.81759 111.031855 C 41.279309 112.345025 40.226407 113.001609 38.658885 113.001609 Z M 70.600842 71.548048 C 71.565016 71.548048 72.05006 71.110325 72.05006 70.228963 C 72.05006 70.057423 71.967248 69.613785 71.795708 68.909879 L 63.863455 46.343478 C 63.691915 45.893924 63.425732 45.669148 63.058991 45.669148 C 62.715911 45.669148 62.455643 45.893924 62.284103 46.343478 L 54.227632 68.779745 C 54.056091 69.122825 53.967364 69.560548 53.967364 70.098829 C 53.967364 71.068918 54.493814 71.548048 55.546716 71.548048 Z M 210.021567 15.046276 C 211.328822 15.046276 211.985406 15.791588 211.985406 17.270382 L 211.985406 110.617793 C 211.985406 111.321699 211.695563 111.901386 211.115875 112.356855 C 210.559849 112.782748 209.838197 113.001609 208.956836 113.001609 L 190.874139 113.001609 C 190.081505 113.001609 189.436751 112.871475 188.939876 112.611208 C 188.466662 112.333194 187.922466 111.806744 187.295457 111.031855 L 151.005845 61.78209 C 150.639104 61.332537 150.3256 61.149166 150.071247 61.237894 C 149.810979 61.320706 149.680845 61.592805 149.680845 62.042358 L 149.680845 110.097257 C 149.769573 111.150159 149.562542 111.901386 149.071582 112.356855 C 148.598368 112.782748 147.740667 113.001609 146.492565 113.001609 L 128.540002 113.001609 C 126.345471 113.001609 125.251164 112.120248 125.251164 110.357525 L 125.251164 18.080761 C 125.251164 16.057771 126.221253 15.046276 128.155516 15.046276 L 149.680845 15.046276 C 150.822474 15.046276 151.668345 15.20007 152.230287 15.501744 C 152.809974 15.803418 153.454728 16.448173 154.16455 17.436007 L 185.846238 61.527738 C 186.38452 62.302626 186.869564 62.687112 187.295457 62.687112 C 187.750925 62.687112 187.975702 62.119255 187.975702 60.977626 L 187.975702 17.820494 C 187.975702 15.974958 188.939876 15.046276 190.874139 15.046276 Z M 253.308834 15.046276 C 254.894101 15.046276 255.69265 15.974958 255.69265 17.820494 L 255.69265 109.162659 C 255.69265 110.582302 255.33774 111.581967 254.627918 112.161654 C 253.918097 112.723596 252.823789 113.001609 251.33908 113.001609 L 229.293215 113.001609 C 227.9623 113.001609 227.027702 112.741341 226.489421 112.226721 C 225.9748 111.68844 225.714532 110.848485 225.714532 109.712771 L 225.714532 18.080761 C 225.714532 17.110672 225.933394 16.371275 226.359287 15.856655 C 226.814755 15.318374 227.435849 15.046276 228.228483 15.046276 Z M 272.828918 113.001609 C 271.776017 113.001609 270.936062 112.676275 270.314968 112.03152 C 269.71162 111.36902 269.415861 110.452168 269.415861 109.292793 L 269.415861 18.080761 C 269.415861 17.02786 269.628808 16.264802 270.060616 15.791588 C 270.510169 15.294713 271.21999 15.046276 272.184164 15.046276 L 309.154021 15.046276 C 310.295651 15.046276 311.100115 15.20007 311.573329 15.501744 C 312.064289 15.803418 312.496096 16.448173 312.862837 17.436007 L 326.591964 59.398274 C 326.852231 60.108095 327.14799 60.463006 327.496986 60.463006 C 327.774999 60.463006 328.041182 60.108095 328.30145 59.398274 L 340.581358 18.885226 C 341.267518 16.329869 342.450554 15.046276 344.124549 15.046276 L 382.289272 15.046276 C 383.880454 15.046276 384.673088 15.974958 384.673088 17.820494 L 384.673088 109.162659 C 384.673088 110.582302 384.341838 111.581967 383.673423 112.161654 C 383.005008 112.723596 381.934361 113.001609 380.449652 113.001609 L 358.113943 113.001609 C 356.800773 113.001609 355.901666 112.741341 355.404792 112.226721 C 354.931577 111.68844 354.69497 110.848485 354.69497 109.712771 L 354.69497 50.407205 C 354.69497 49.721044 354.52343 49.377964 354.18035 49.377964 C 353.730796 49.377964 353.375886 49.774281 353.115618 50.566914 L 334.104239 110.617793 C 333.47723 112.20306 332.424328 113.001609 330.945534 113.001609 L 317.086274 113.001609 C 315.495091 113.001609 314.430359 112.20306 313.892078 110.617793 L 294.910275 51.596155 C 294.626346 50.720709 294.318757 50.277071 293.975677 50.277071 C 293.520208 50.277071 293.295431 50.762115 293.295431 51.726289 L 293.295431 110.097257 C 293.295431 111.238886 293.123891 112.013775 292.780811 112.421922 C 292.437731 112.806408 291.645097 113.001609 290.396995 113.001609 Z M 398.390384 18.080761 C 398.390384 16.057771 399.230339 15.046276 400.904334 15.046276 L 472.199965 15.046276 C 473.773402 15.046276 474.554205 15.974958 474.554205 17.820494 L 474.424071 33.128972 C 474.424071 35.512789 473.288357 36.707654 471.011014 36.707654 L 431.397073 36.707654 C 429.379997 36.707654 428.368502 37.535779 428.368502 39.192029 L 428.368502 50.407205 C 428.368502 51.288566 428.581448 51.974727 429.013256 52.471601 C 429.46281 52.962561 430.042497 53.210999 430.752318 53.210999 L 454.50767 53.210999 C 456.353205 53.210999 457.281888 54.08053 457.281888 55.819592 L 457.281888 72.192802 C 457.281888 73.701172 456.483339 74.4524 454.892156 74.4524 L 430.462475 74.4524 C 429.859126 74.4524 429.356336 74.63577 428.948189 74.996596 C 428.563703 75.345592 428.368502 75.771484 428.368502 76.286105 L 428.368502 89.50061 C 428.368502 90.210432 428.474975 90.695476 428.687921 90.955744 C 428.906783 91.210097 429.326761 91.340231 429.947854 91.340231 L 472.844719 91.340231 C 474.778982 91.340231 475.749071 92.180186 475.749071 93.854181 L 475.749071 110.097257 C 475.749071 110.978619 475.476973 111.68844 474.944607 112.226721 C 474.424071 112.741341 473.643268 113.001609 472.590366 113.001609 L 401.969066 113.001609 C 400.638151 113.001609 399.703553 112.741341 399.165272 112.226721 C 398.650652 111.68844 398.390384 110.848485 398.390384 109.712771 Z M 398.390384 18.080761 " stroke="#ffdf2b" stroke-width="4.9509" stroke-opacity="1" stroke-miterlimit="4"/></svg>