<svg xmlns="http://www.w3.org/2000/svg" xmlns:xlink="http://www.w3.org/1999/xlink" width="1024" zoomAndPan="magnify" viewBox="0 0 768 576" height="768" preserveAspectRatio="xMidYMid meet" version="1.0"><path fill="#242d3c" d="M 240.0625 299.0625 L 240.0625 393.941406 C 240.0625 402.445312 246.964844 409.347656 255.480469 409.347656 L 512.75 409.347656 C 521.265625 409.347656 528.148438 402.445312 528.148438 393.941406 L 528.148438 299.0625 L 240.0625 299.0625 " fill-opacity="1" fill-rule="nonzero"/><path fill="#242d3c" d="M 512.746094 142.023438 C 521.261719 142.023438 528.148438 148.925781 528.148438 157.4375 L 528.148438 317.378906 C 528.148438 325.894531 521.261719 332.789062 512.746094 332.789062 L 255.476562 332.789062 C 246.964844 332.789062 240.0625 325.894531 240.0625 317.378906 L 240.0625 157.4375 C 240.0625 148.925781 246.964844 142.023438 255.480469 142.023438 L 512.75 142.023438 " fill-opacity="1" fill-rule="nonzero"/><path fill="#e84878" d="M 255.480469 143.660156 C 247.878906 143.660156 241.710938 149.835938 241.710938 157.4375 L 241.710938 317.378906 C 241.710938 324.976562 247.878906 331.160156 255.480469 331.160156 L 512.75 331.160156 C 520.355469 331.160156 526.523438 324.976562 526.523438 317.378906 L 526.523438 157.4375 C 526.523438 149.835938 520.355469 143.660156 512.75 143.660156 Z M 512.75 334.429688 L 255.480469 334.429688 C 246.082031 334.429688 238.441406 326.773438 238.441406 317.382812 L 238.441406 157.4375 C 238.441406 148.042969 246.082031 140.402344 255.480469 140.402344 L 512.753906 140.402344 C 522.152344 140.402344 529.789062 148.042969 529.789062 157.4375 L 529.789062 317.382812 C 529.789062 326.773438 522.152344 334.429688 512.753906 334.429688 " fill-opacity="1" fill-rule="nonzero"/><path fill="#fefff2" d="M 266.042969 318.617188 L 507.25 318.617188 L 507.25 156.1875 L 266.042969 156.1875 Z M 266.042969 318.617188 " fill-opacity="1" fill-rule="nonzero"/><path fill="#242d3c" d="M 257.453125 203.898438 C 253.566406 203.960938 250.425781 207.121094 250.425781 211.019531 L 250.425781 263.804688 C 250.425781 267.683594 253.566406 270.855469 257.453125 270.914062 L 257.453125 203.898438 " fill-opacity="1" fill-rule="nonzero"/><path fill="#e84878" d="M 325.105469 349.484375 C 327.410156 349.484375 329.265625 351.347656 329.265625 353.652344 C 329.265625 355.953125 327.410156 357.808594 325.105469 357.808594 L 306 357.808594 C 303.714844 357.808594 301.851562 355.953125 301.851562 353.652344 C 301.851562 351.347656 303.714844 349.484375 306 349.484375 L 325.105469 349.484375 " fill-opacity="1" fill-rule="nonzero"/><path fill="#e84878" d="M 290.835938 349.484375 C 293.132812 349.484375 294.992188 351.347656 294.992188 353.652344 C 294.992188 355.953125 293.132812 357.808594 290.835938 357.808594 L 271.730469 357.808594 C 269.4375 357.808594 267.574219 355.953125 267.574219 353.652344 C 267.574219 351.347656 269.4375 349.484375 271.730469 349.484375 L 290.835938 349.484375 " fill-opacity="1" fill-rule="nonzero"/><path fill="#e84878" d="M 359.386719 349.484375 C 361.6875 349.484375 363.550781 351.347656 363.550781 353.652344 C 363.550781 355.953125 361.6875 357.808594 359.386719 357.808594 L 340.289062 357.808594 C 337.992188 357.808594 336.132812 355.953125 336.132812 353.652344 C 336.132812 351.347656 337.992188 349.484375 340.289062 349.484375 L 359.386719 349.484375 " fill-opacity="1" fill-rule="nonzero"/><path fill="#e84878" d="M 393.65625 349.484375 C 395.960938 349.484375 397.828125 351.347656 397.828125 353.652344 C 397.828125 355.953125 395.960938 357.808594 393.65625 357.808594 L 374.558594 357.808594 C 372.265625 357.808594 370.402344 355.953125 370.402344 353.652344 C 370.402344 351.347656 372.265625 349.484375 374.558594 349.484375 L 393.65625 349.484375 " fill-opacity="1" fill-rule="nonzero"/><path fill="#e84878" d="M 427.933594 349.484375 C 430.230469 349.484375 432.109375 351.347656 432.109375 353.652344 C 432.109375 355.953125 430.230469 357.808594 427.933594 357.808594 L 408.835938 357.808594 C 406.542969 357.808594 404.679688 355.953125 404.679688 353.652344 C 404.679688 351.347656 406.542969 349.484375 408.835938 349.484375 L 427.933594 349.484375 " fill-opacity="1" fill-rule="nonzero"/><path fill="#e84878" d="M 462.214844 349.484375 C 464.507812 349.484375 466.378906 351.347656 466.378906 353.652344 C 466.378906 355.953125 464.507812 357.808594 462.214844 357.808594 L 443.117188 357.808594 C 440.828125 357.808594 438.960938 355.953125 438.960938 353.652344 C 438.960938 351.347656 440.832031 349.484375 443.117188 349.484375 L 462.214844 349.484375 " fill-opacity="1" fill-rule="nonzero"/><path fill="#e84878" d="M 496.492188 349.484375 C 498.785156 349.484375 500.65625 351.347656 500.65625 353.652344 C 500.65625 355.953125 498.785156 357.808594 496.492188 357.808594 L 477.394531 357.808594 C 475.101562 357.808594 473.246094 355.953125 473.246094 353.652344 C 473.246094 351.347656 475.101562 349.484375 477.394531 349.484375 L 496.492188 349.484375 " fill-opacity="1" fill-rule="nonzero"/><path fill="#e84878" d="M 325.105469 383.476562 C 327.410156 383.476562 329.265625 385.347656 329.265625 387.644531 C 329.265625 389.9375 327.410156 391.800781 325.105469 391.800781 L 306 391.800781 C 303.714844 391.800781 301.851562 389.9375 301.851562 387.644531 C 301.851562 385.347656 303.714844 383.476562 306 383.476562 L 325.105469 383.476562 " fill-opacity="1" fill-rule="nonzero"/><path fill="#e84878" d="M 290.835938 383.476562 C 293.132812 383.476562 294.992188 385.347656 294.992188 387.644531 C 294.992188 389.9375 293.132812 391.800781 290.835938 391.800781 L 271.730469 391.800781 C 269.4375 391.800781 267.574219 389.9375 267.574219 387.644531 C 267.574219 385.347656 269.4375 383.476562 271.730469 383.476562 L 290.835938 383.476562 " fill-opacity="1" fill-rule="nonzero"/><path fill="#e84878" d="M 359.386719 383.476562 C 361.6875 383.476562 363.550781 385.347656 363.550781 387.644531 C 363.550781 389.9375 361.6875 391.800781 359.386719 391.800781 L 340.289062 391.800781 C 337.992188 391.800781 336.132812 389.9375 336.132812 387.644531 C 336.132812 385.347656 337.992188 383.476562 340.289062 383.476562 L 359.386719 383.476562 " fill-opacity="1" fill-rule="nonzero"/><path fill="#e84878" d="M 393.65625 383.476562 C 395.960938 383.476562 397.828125 385.347656 397.828125 387.644531 C 397.828125 389.9375 395.960938 391.800781 393.65625 391.800781 L 374.558594 391.800781 C 372.265625 391.800781 370.402344 389.9375 370.402344 387.644531 C 370.402344 385.347656 372.265625 383.476562 374.558594 383.476562 L 393.65625 383.476562 " fill-opacity="1" fill-rule="nonzero"/><path fill="#e84878" d="M 427.933594 383.476562 C 430.230469 383.476562 432.109375 385.347656 432.109375 387.644531 C 432.109375 389.9375 430.230469 391.800781 427.933594 391.800781 L 408.835938 391.800781 C 406.542969 391.800781 404.679688 389.9375 404.679688 387.644531 C 404.679688 385.347656 406.542969 383.476562 408.835938 383.476562 L 427.933594 383.476562 " fill-opacity="1" fill-rule="nonzero"/><path fill="#e84878" d="M 462.214844 383.476562 C 464.507812 383.476562 466.378906 385.347656 466.378906 387.644531 C 466.378906 389.9375 464.507812 391.800781 462.214844 391.800781 L 443.117188 391.800781 C 440.828125 391.800781 438.960938 389.9375 438.960938 387.644531 C 438.960938 385.347656 440.832031 383.476562 443.117188 383.476562 L 462.214844 383.476562 " fill-opacity="1" fill-rule="nonzero"/><path fill="#e84878" d="M 496.492188 383.476562 C 498.785156 383.476562 500.65625 385.347656 500.65625 387.644531 C 500.65625 389.9375 498.785156 391.800781 496.492188 391.800781 L 477.394531 391.800781 C 475.101562 391.800781 473.246094 389.9375 473.246094 387.644531 C 473.246094 385.347656 475.101562 383.476562 477.394531 383.476562 L 496.492188 383.476562 " fill-opacity="1" fill-rule="nonzero"/><path fill="#e84878" d="M 342.246094 366.164062 C 344.542969 366.164062 346.410156 368.027344 346.410156 370.324219 C 346.410156 372.625 344.542969 374.488281 342.246094 374.488281 L 323.140625 374.488281 C 320.847656 374.488281 318.984375 372.625 318.984375 370.324219 C 318.984375 368.027344 320.847656 366.164062 323.140625 366.164062 L 342.246094 366.164062 " fill-opacity="1" fill-rule="nonzero"/><path fill="#e84878" d="M 307.96875 366.164062 C 310.261719 366.164062 312.140625 368.027344 312.140625 370.324219 C 312.140625 372.625 310.261719 374.488281 307.96875 374.488281 L 288.878906 374.488281 C 286.566406 374.488281 284.703125 372.625 284.703125 370.324219 C 284.703125 368.027344 286.566406 366.164062 288.878906 366.164062 L 307.96875 366.164062 " fill-opacity="1" fill-rule="nonzero"/><path fill="#e84878" d="M 273.695312 366.164062 C 275.980469 366.164062 277.847656 368.027344 277.847656 370.324219 C 277.847656 372.625 275.980469 374.488281 273.695312 374.488281 L 254.59375 374.488281 C 252.289062 374.488281 250.425781 372.625 250.425781 370.324219 C 250.425781 368.027344 252.289062 366.164062 254.59375 366.164062 L 273.695312 366.164062 " fill-opacity="1" fill-rule="nonzero"/><path fill="#e84878" d="M 376.515625 366.164062 C 378.820312 366.164062 380.683594 368.027344 380.683594 370.324219 C 380.683594 372.625 378.820312 374.488281 376.515625 374.488281 L 357.429688 374.488281 C 355.125 374.488281 353.261719 372.625 353.261719 370.324219 C 353.261719 368.027344 355.125 366.164062 357.429688 366.164062 L 376.515625 366.164062 " fill-opacity="1" fill-rule="nonzero"/><path fill="#e84878" d="M 410.804688 366.164062 C 413.097656 366.164062 414.96875 368.027344 414.96875 370.324219 C 414.96875 372.625 413.097656 374.488281 410.804688 374.488281 L 391.699219 374.488281 C 389.410156 374.488281 387.53125 372.625 387.53125 370.324219 C 387.53125 368.027344 389.410156 366.164062 391.699219 366.164062 L 410.804688 366.164062 " fill-opacity="1" fill-rule="nonzero"/><path fill="#e84878" d="M 445.082031 366.164062 C 447.378906 366.164062 449.238281 368.027344 449.238281 370.324219 C 449.238281 372.625 447.378906 374.488281 445.082031 374.488281 L 425.984375 374.488281 C 423.671875 374.488281 421.820312 372.625 421.820312 370.324219 C 421.820312 368.027344 423.671875 366.164062 425.984375 366.164062 L 445.082031 366.164062 " fill-opacity="1" fill-rule="nonzero"/><path fill="#e84878" d="M 479.351562 366.164062 C 481.648438 366.164062 483.519531 368.027344 483.519531 370.324219 C 483.519531 372.625 481.648438 374.488281 479.351562 374.488281 L 460.265625 374.488281 C 457.953125 374.488281 456.097656 372.625 456.097656 370.324219 C 456.097656 368.027344 457.953125 366.164062 460.265625 366.164062 L 479.351562 366.164062 " fill-opacity="1" fill-rule="nonzero"/><path fill="#e84878" d="M 513.632812 366.164062 C 515.933594 366.164062 517.789062 368.027344 517.789062 370.324219 C 517.789062 372.625 515.933594 374.488281 513.632812 374.488281 L 494.542969 374.488281 C 492.230469 374.488281 490.378906 372.625 490.378906 370.324219 C 490.378906 368.027344 492.230469 366.164062 494.542969 366.164062 L 513.632812 366.164062 " fill-opacity="1" fill-rule="nonzero"/></svg>